<svg width="275" height="44" viewBox="0 0 275 44" fill="none" xmlns="http://www.w3.org/2000/svg">
<path d="M11.3508 22.1864L2.97755 14.0577C1.30697 12.2648 0.471681 10.5535 0.471681 8.92369C0.471681 6.92715 1.32734 5.15471 3.03866 3.60637C4.91297 1.93579 6.58355 1.1005 8.0504 1.1005C9.84321 1.1005 11.4119 1.89504 12.7565 3.48413L20.5797 13.5076L27.0583 4.82874C29.0548 2.384 31.2959 1.16162 33.7814 1.16162C35.4927 1.16162 37.0818 1.87467 38.5486 3.30077C40.2192 5.0121 41.0545 6.64193 41.0545 8.19027C41.0545 9.98308 39.8525 12.1222 37.4485 14.6077L30.2365 21.453L38.4875 30.0708C40.1988 31.9858 41.0545 33.6768 41.0545 35.1436C41.0545 37.1809 40.1988 38.9533 38.4875 40.4609C36.6132 42.1723 34.9426 43.0279 33.4758 43.0279C31.6422 43.0279 30.0735 42.2334 28.7696 40.6443L20.8853 30.3763L14.4067 39.2386C12.4917 41.7241 10.271 42.9668 7.7448 42.9668C6.07423 42.9668 4.48514 42.213 2.97755 40.7054C1.30697 39.0348 0.471681 37.4254 0.471681 35.877C0.471681 34.2065 1.65331 32.0673 4.01656 29.4596L11.3508 22.1864ZM68.2948 34.4102C69.6801 34.4102 70.8618 33.799 71.8397 32.5766C72.8583 31.3542 73.5714 29.8467 73.9788 28.0538C74.427 26.261 74.6511 24.346 74.6511 22.3087C74.6511 20.2306 74.427 18.2749 73.9788 16.4413C73.5306 14.567 72.7972 12.9779 71.7786 11.674C70.8007 10.3702 69.6394 9.71824 68.2948 9.71824C66.9909 9.71824 65.85 10.3702 64.8721 11.674C63.8942 12.9779 63.1608 14.567 62.6719 16.4413C62.1829 18.3156 61.9384 20.2714 61.9384 22.3087C61.9384 24.346 62.1625 26.261 62.6108 28.0538C63.0997 29.8467 63.8331 31.3542 64.811 32.5766C65.8297 33.799 66.9909 34.4102 68.2948 34.4102ZM79.1128 40.9499C75.8939 42.539 72.2675 43.3335 68.2337 43.3335C64.2406 43.3335 60.6346 42.539 57.4157 40.9499C54.2375 39.32 51.6909 36.8957 49.7758 33.6768C47.8608 30.4578 46.9032 26.6685 46.9032 22.3087C46.9032 15.7079 48.8794 10.472 52.8318 6.60118C56.8248 2.68959 61.9792 0.73379 68.2948 0.73379C74.6104 0.73379 79.7647 2.68959 83.7578 6.60118C87.7509 10.472 89.7474 15.7079 89.7474 22.3087C89.7474 26.6685 88.7695 30.4578 86.8137 33.6768C84.8987 36.8957 82.3317 39.32 79.1128 40.9499ZM113.626 15.4023C113.626 13.4057 111.772 12.4075 108.064 12.4075C107.29 12.4075 106.23 12.489 104.886 12.6519C103.582 12.7742 102.624 12.8353 102.013 12.8353C99.0795 12.8353 97.6126 11.0832 97.6126 7.57908C97.6126 3.95271 101.85 2.13952 110.325 2.13952C115.826 2.13952 119.941 3.03593 122.671 4.82874C125.401 6.62156 126.766 8.96444 126.766 11.8574C126.766 15.8912 125.014 19.1101 121.51 21.5141C123.873 22.7773 125.524 24.1015 126.461 25.4869C127.439 26.8315 127.928 28.7873 127.928 31.3542C127.928 34.8991 126.522 37.7921 123.71 40.0331C120.94 42.2334 117.211 43.3335 112.526 43.3335C106.658 43.3335 102.441 42.7427 99.874 41.5611C97.3478 40.3387 96.0847 38.5051 96.0847 36.0604C96.0847 34.0231 96.4921 32.6377 97.3071 31.9043C98.122 31.1301 99.2629 30.7431 100.73 30.7431C101.463 30.7431 102.604 30.8246 104.152 30.9875C105.701 31.1505 106.882 31.232 107.697 31.232C112.139 31.232 114.359 30.4171 114.359 28.7873C114.359 27.6871 113.931 26.9333 113.076 26.5259C112.22 26.0777 110.611 25.8536 108.247 25.8536C105.884 25.8536 104.213 25.548 103.236 24.9368C102.258 24.3256 101.769 23.1847 101.769 21.5141C101.769 18.9879 103.439 17.7248 106.78 17.7248C108.94 17.7248 110.529 17.6229 111.548 17.4192C112.607 17.2155 113.218 16.9914 113.381 16.7469C113.544 16.4617 113.626 16.0135 113.626 15.4023ZM170.038 2.75071C168.857 1.60982 167.084 1.03938 164.721 1.03938C163.662 1.03938 162.745 1.12087 161.971 1.28386C161.237 1.44684 160.504 1.75243 159.77 2.20064C159.078 2.64884 158.548 3.34152 158.181 4.27867C157.855 5.21583 157.692 6.37708 157.692 7.76244V12.163C157.692 13.0186 157.631 13.7113 157.509 14.241C157.427 14.7707 157.224 15.3004 156.898 15.8301C156.613 16.3598 156.144 16.7469 155.492 16.9914C154.84 17.2358 154.005 17.3581 152.986 17.3581C151.968 17.3581 151.132 17.1951 150.48 16.8691C149.828 16.5839 149.299 16.0542 148.891 15.28C148.525 14.5059 148.321 13.4668 148.28 12.163V7.82356C148.28 5.09359 147.648 3.2804 146.385 2.38399C145.163 1.48759 143.35 1.03938 140.946 1.03938C138.99 1.03938 137.381 1.73206 136.117 3.11742C134.814 4.46203 134.162 6.2141 134.162 8.37362V11.0017C134.162 16.5839 135.669 20.7603 138.684 23.5311C141.74 26.3018 146.508 27.6871 152.986 27.6871C153.883 27.6871 154.779 27.6464 155.675 27.5649V28.3594V29.154L155.614 29.2762C155.614 31.2728 155.085 32.8007 154.025 33.8601C152.966 34.9602 151.153 35.5103 148.586 35.5103C147.567 35.5103 146.548 35.3473 145.53 35.0214C144.47 34.6954 143.554 34.3287 142.779 33.9212C142.046 33.5138 141.251 33.1471 140.396 32.8211C139.581 32.4951 138.868 32.3321 138.257 32.3321C137.401 32.3321 136.708 32.597 136.179 33.1267C135.69 33.6971 135.445 34.3083 135.445 34.9602C135.445 35.6122 135.812 36.3864 136.545 37.2828C137.238 38.1792 138.216 39.0959 139.479 40.0331C140.742 40.9295 142.453 41.6833 144.613 42.2945C146.772 42.9464 149.115 43.2724 151.642 43.2724C154.779 43.2724 157.489 42.9261 159.77 42.2334C162.052 41.5407 163.926 40.4813 165.393 39.0552C166.86 37.6698 168.001 36.0808 168.816 34.2879C169.631 32.4544 170.242 30.2949 170.649 27.8094C170.812 26.75 171.057 23.9181 171.383 19.3139C171.668 14.9133 171.811 12.1426 171.811 11.0017V8.37362C171.811 5.76589 171.22 3.89159 170.038 2.75071ZM216.635 20.9641C216.024 22.4309 215.148 23.1643 214.007 23.1643C212.907 23.1643 212.01 22.5939 211.318 21.453V10.0849C212.01 8.90332 212.907 8.31251 214.007 8.31251C215.066 8.31251 215.922 9.08668 216.574 10.635C217.226 12.1834 217.552 13.9558 217.552 15.9523C217.552 17.8266 217.246 19.4972 216.635 20.9641ZM195.121 23.1643C194.021 23.1643 193.165 22.4309 192.554 20.9641C191.943 19.4972 191.638 17.8266 191.638 15.9523C191.638 13.9558 191.963 12.1834 192.615 10.635C193.267 9.08668 194.123 8.31251 195.182 8.31251C196.283 8.31251 197.179 8.88295 197.872 10.0238V14.7911V21.453C197.179 22.5939 196.262 23.1643 195.121 23.1643ZM227.698 4.82874C225.62 2.09877 222.951 0.73379 219.691 0.73379C216.472 0.73379 213.457 1.83393 210.645 4.0342C210.156 2.89332 209.423 2.11915 208.445 1.71169C207.467 1.34498 206.184 1.16162 204.595 1.16162H204.106C202.72 1.20237 201.6 1.4061 200.744 1.77281C199.766 2.13952 199.033 2.89332 198.544 4.0342C195.732 1.83393 192.717 0.73379 189.498 0.73379C186.239 0.73379 183.57 2.09877 181.492 4.82874C179.414 7.55871 178.375 11.2666 178.375 15.9523C178.375 20.5159 179.434 24.1219 181.553 26.7703C183.672 29.3781 186.341 30.6819 189.559 30.6819C192.656 30.6819 195.427 29.9893 197.872 28.6039V33.8601C197.872 35.5714 198.014 37.0179 198.299 38.1995C198.585 39.4627 199.013 40.4406 199.583 41.1332C200.52 42.2741 201.946 42.9057 203.861 43.0279H204.289H204.595C206.836 43.0279 208.527 42.3149 209.668 40.8888C210.768 39.5034 211.318 37.1605 211.318 33.8601V28.6039C213.762 29.9893 216.533 30.6819 219.63 30.6819C222.849 30.6819 225.518 29.3577 227.636 26.7092C229.755 24.1015 230.815 20.5159 230.815 15.9523C230.815 11.2666 229.776 7.55871 227.698 4.82874ZM255.169 11.0628C253.417 11.0628 252.113 11.5722 251.257 12.5908C250.442 13.6095 250.035 15.4226 250.035 18.0304V25.2424H260.181V17.9081C260.181 16.1968 259.977 14.8318 259.569 13.8132C259.162 12.7538 258.592 12.0407 257.858 11.674C257.165 11.2666 256.269 11.0628 255.169 11.0628ZM260.181 33.6768H250.035V36.916C250.035 38.9941 249.485 40.522 248.385 41.4999C247.285 42.4778 245.39 42.9668 242.701 42.9668C241.56 42.9668 240.623 42.8038 239.889 42.4778C239.156 42.1519 238.504 41.6018 237.933 40.8276C237.404 40.0535 236.996 38.933 236.711 37.4661C236.467 35.9585 236.263 34.1657 236.1 32.0877C235.978 29.9689 235.917 27.3 235.917 24.0811C235.917 21.2697 236.202 18.7027 236.772 16.3802C237.383 14.0169 238.178 12.0204 239.156 10.3905C240.175 8.76071 241.315 7.33461 242.579 6.11223C243.842 4.84912 245.207 3.87122 246.673 3.17854C248.181 2.48586 249.628 1.97654 251.013 1.65057C252.439 1.28386 253.865 1.1005 255.291 1.1005C257.003 1.1005 258.693 1.34498 260.364 1.83393C262.035 2.28213 263.726 3.07667 265.437 4.21756C267.148 5.35844 268.635 6.78454 269.899 8.49586C271.202 10.1664 272.262 12.3463 273.077 15.0356C273.892 17.7248 274.299 20.74 274.299 24.0811C274.299 29.4596 274.095 33.4527 273.688 36.0604C273.321 38.6274 272.669 40.4202 271.732 41.4388C270.836 42.4575 269.43 42.9668 267.515 42.9668C264.826 42.9668 262.931 42.4778 261.831 41.4999C260.731 40.522 260.181 38.9941 260.181 36.916V33.6768Z" fill="#444444"/>
</svg>
